<?xml version="1.0" encoding="UTF-8" standalone="no"?>
<!DOCTYPE svg PUBLIC "-//W3C//DTD SVG 1.1//EN" "http://www.w3.org/Graphics/SVG/1.1/DTD/svg11.dtd">
<svg xmlns="http://www.w3.org/2000/svg" version="1.1" viewBox="0 0 1024 1024">
<path fill="#000000" d="
  M 870.91 312.72
  C 924.92 363.75 862.30 435.45 821.69 468.70
  C 809.30 478.85 797.07 489.21 785.02 499.79
  C 762.54 519.52 745.58 543.24 734.15 570.93
  C 716.17 614.46 704.32 664.72 695.01 706.01
  C 693.90 710.97 692.80 714.54 691.72 716.73
  C 682.48 735.44 652.84 741.06 634.24 742.99
  C 602.18 746.31 569.79 745.63 537.75 744.25
  C 516.99 743.35 496.16 741.57 475.80 737.43
  C 475.58 737.39 475.43 737.19 475.44 736.96
  C 475.46 736.74 475.64 736.56 475.86 736.55
  C 480.75 736.28 486.30 737.25 489.92 737.54
  C 524.12 740.26 555.41 739.38 588.18 738.11
  C 610.62 737.25 633.53 735.55 655.23 729.44
  C 660.96 727.83 666.39 725.53 671.54 722.56
  C 680.75 717.25 682.62 712.14 684.67 701.21
  C 693.31 655.15 703.73 608.96 721.02 565.27
  C 730.76 540.67 744.36 519.10 761.81 500.57
  C 778.80 482.52 804.61 462.47 819.30 449.56
  C 851.83 420.97 907.44 356.41 852.88 317.89
  C 829.58 301.43 802.25 309.93 778.06 318.66
  C 763.84 323.79 749.61 328.88 735.36 333.95
  C 682.85 352.60 626.68 362.84 570.93 363.01
  C 524.78 363.14 478.82 360.10 433.07 353.88
  C 415.56 351.50 330.30 339.50 339.36 307.99
  C 345.64 286.16 391.15 278.21 409.70 275.44
  C 455.25 268.65 501.23 267.75 547.18 266.42
  C 568.63 265.80 630.33 260.58 636.04 232.13
  C 639.99 212.41 609.42 201.83 595.69 197.44
  C 579.77 192.35 563.80 187.43 547.77 182.70
  C 532.09 178.08 498.82 167.63 495.26 148.67
  C 490.26 122.05 541.31 107.55 561.16 101.30
  C 561.60 101.16 562.00 101.60 561.81 102.02
  L 561.51 102.66
  C 561.38 102.95 561.16 103.14 560.87 103.24
  C 543.55 109.10 523.52 115.65 509.07 126.32
  C 490.62 139.94 496.90 156.44 514.90 165.78
  C 547.79 182.84 585.48 186.21 618.94 201.55
  C 630.00 206.62 642.15 215.51 641.62 229.46
  C 640.14 268.71 561.24 272.46 534.95 273.56
  C 514.91 274.40 339.07 279.54 348.05 314.89
  C 356.27 347.24 534.23 351.58 563.75 351.54
  C 611.19 351.48 658.93 344.01 703.50 329.99
  C 721.61 324.29 741.99 317.21 764.66 308.74
  C 801.16 295.11 838.56 282.14 870.91 312.72
  Z"
/>
<path fill="#000000" d="
  M 778.81 624.83
  C 783.85 625.40 788.78 626.11 793.59 626.94
  C 821.26 631.73 848.05 637.01 874.49 645.01
  C 895.94 651.50 934.33 665.61 943.88 687.83
  C 971.37 751.85 781.02 777.26 748.75 781.53
  C 676.01 791.14 602.69 795.81 529.31 794.45
  C 515.95 794.20 495.17 793.33 466.98 791.82
  C 459.95 791.44 453.31 790.82 447.08 789.95
  C 412.60 785.15 378.53 778.31 344.88 769.44
  C 321.57 763.29 298.75 754.19 277.06 743.71
  C 276.91 743.63 276.52 743.09 276.51 742.92
  C 276.49 742.65 276.61 742.55 276.87 742.62
  C 278.96 743.16 281.01 743.47 282.99 744.30
  C 294.83 749.21 306.98 753.21 319.43 756.32
  C 338.75 761.14 358.27 765.59 377.92 768.86
  C 407.19 773.73 435.41 778.22 464.68 778.74
  C 470.95 778.85 478.16 779.15 486.32 779.63
  C 588.48 785.65 691.70 778.86 792.72 763.05
  C 824.07 758.14 928.80 740.76 938.27 704.53
  C 950.22 658.75 806.26 630.47 778.76 625.14
  C 776.21 624.64 776.22 624.54 778.81 624.83
  Z"
/>
</svg>
